<svg xmlns="http://www.w3.org/2000/svg" viewBox="0 0 18.65 21.75"><circle class="cls-1" cx="8.26" cy="7.79" r="2.96"/><path class="cls-2" d="M15.93,11.16a7.74,7.74,0,0,0,.4-1.75A8.34,8.34,0,0,0,12.56,1.6a8,8,0,0,0-4-1.1A7.5,7.5,0,0,0,4.22,1.6,7.76,7.76,0,0,0,1.53,4.83a9.42,9.42,0,0,0-.94,3,10.08,10.08,0,0,0,.54,4.71,13.33,13.33,0,0,0,2,3.91A17.24,17.24,0,0,0,5.3,18.83a22.35,22.35,0,0,0,3,2.42"/><path class="cls-2" d="M9.2,14.72l4.47-3.54,4.48,3.54L18,20.51H9.2V14.72h9"/><rect class="cls-2" x="14.75" y="16.11" width="2.01" height="2.31"/><rect class="cls-2" x="10.74" y="16.11" width="2.01" height="2.31"/></svg>