<svg xmlns="http://www.w3.org/2000/svg" width="33.763" height="32.296" viewBox="0 0 33.763 32.296">
  <g id="Group_1398" data-name="Group 1398" transform="translate(-609.455 -89.745)">
    <path id="Path_344" data-name="Path 344" d="M643.431,100.974l-14.68-9.961a.524.524,0,0,0-.589,0l-14.68,9.961a.524.524,0,0,0-.23.434v20.447a.524.524,0,0,0,.524.524h29.359a.524.524,0,0,0,.524-.524V101.408A.523.523,0,0,0,643.431,100.974Z" transform="translate(-2.537 -0.787)" fill="#464797"/>
    <path id="Path_345" data-name="Path 345" d="M611.092,121.061v-20.7a.526.526,0,0,1,.239-.439L626.1,90.174l-.512-.338a.558.558,0,0,0-.613,0l-15.28,10.085a.527.527,0,0,0-.239.439v20.7a.539.539,0,0,0,.546.531h1.637A.538.538,0,0,1,611.092,121.061Z" transform="translate(0 0)" fill="#78a7d9"/>
    <path id="Path_346" data-name="Path 346" d="M648.449,124.778H629.575a.524.524,0,0,0-.524.524v17.825a.524.524,0,0,0,.524.524h18.874a.524.524,0,0,0,.524-.524V125.3A.525.525,0,0,0,648.449,124.778Z" transform="translate(-13.093 -23.407)" fill="#cfd7ec"/>
    <g id="Group_1394" data-name="Group 1394" transform="translate(614.91 99.952)">
      <path id="Path_347" data-name="Path 347" d="M647.387,120.5H626.416a.524.524,0,0,0-.524.524v2.1a.524.524,0,0,0,.524.524h20.971a.524.524,0,0,0,.524-.524v-2.1A.524.524,0,0,0,647.387,120.5Z" transform="translate(-625.892 -120.502)" fill="#b6b7b9"/>
      <path id="Path_348" data-name="Path 348" d="M647.387,125.765H626.416a.524.524,0,0,1-.524-.524v1.049a.524.524,0,0,0,.524.524h20.971a.524.524,0,0,0,.524-.524v-1.049A.524.524,0,0,1,647.387,125.765Z" transform="translate(-625.892 -123.668)" fill="#a0a1a6"/>
    </g>
    <g id="Group_1395" data-name="Group 1395" transform="translate(623.298 94.185)">
      <path id="Path_349" data-name="Path 349" d="M655.886,104.172h-4.194a.524.524,0,1,1,0-1.048h4.194a.524.524,0,1,1,0,1.048Z" transform="translate(-651.168 -103.124)" fill="#d3c6e2"/>
      <path id="Path_350" data-name="Path 350" d="M655.886,110.492h-4.194a.524.524,0,1,1,0-1.049h4.194a.524.524,0,1,1,0,1.049Z" transform="translate(-651.168 -107.346)" fill="#d3c6e2"/>
      <path id="Path_351" data-name="Path 351" d="M655.886,116.811h-4.194a.524.524,0,1,1,0-1.049h4.194a.524.524,0,1,1,0,1.049Z" transform="translate(-651.168 -111.568)" fill="#d3c6e2"/>
    </g>
    <g id="Group_1396" data-name="Group 1396" transform="translate(615.958 105.669)">
      <path id="Path_352" data-name="Path 352" d="M635.867,137.727h-6.291a.524.524,0,0,0-.524.524v6.291a.524.524,0,0,0,.524.524l3.145.524,3.146-.524a.524.524,0,0,0,.524-.524v-6.291A.524.524,0,0,0,635.867,137.727Z" transform="translate(-629.051 -137.727)" fill="#ffd36e"/>
      <path id="Path_353" data-name="Path 353" d="M635.867,159.844h-6.291a.524.524,0,0,0-.524.524v6.291a.524.524,0,0,0,.524.524h6.291a.524.524,0,0,0,.524-.524v-6.291A.524.524,0,0,0,635.867,159.844Z" transform="translate(-629.051 -152.504)" fill="#ffd36e"/>
    </g>
    <path id="Path_354" data-name="Path 354" d="M630.1,166.66v-6.291a.524.524,0,0,1,.524-.524h-1.048a.524.524,0,0,0-.524.524v6.291a.524.524,0,0,0,.524.524h1.048A.524.524,0,0,1,630.1,166.66Z" transform="translate(-13.093 -46.836)" fill="#ffc42d"/>
    <path id="Path_355" data-name="Path 355" d="M639.047,159.844h-2.1v2.621a.524.524,0,0,0,.524.524h1.048a.524.524,0,0,0,.524-.524v-2.621Z" transform="translate(-18.37 -46.836)" fill="#f4b10f"/>
    <path id="Path_356" data-name="Path 356" d="M630.1,144.543v-6.291a.524.524,0,0,1,.524-.524h-1.048a.524.524,0,0,0-.524.524v6.291a.524.524,0,0,0,.524.524h1.048A.524.524,0,0,1,630.1,144.543Z" transform="translate(-13.093 -32.058)" fill="#ffc42d"/>
    <path id="Path_357" data-name="Path 357" d="M639.047,137.727h-2.1v2.621a.524.524,0,0,0,.524.524h1.048a.524.524,0,0,0,.524-.524v-2.621Z" transform="translate(-18.37 -32.058)" fill="#f4b10f"/>
    <path id="Path_358" data-name="Path 358" d="M637.991,154.573h-2.1a.524.524,0,1,1,0-1.048h2.1a.524.524,0,1,1,0,1.048Z" transform="translate(-17.315 -42.614)" fill="#616369"/>
    <g id="Group_1397" data-name="Group 1397" transform="translate(623.298 105.669)">
      <path id="Path_359" data-name="Path 359" d="M657.984,137.727h-6.291a.524.524,0,0,0-.524.524v6.291a.524.524,0,0,0,.524.524l3.145.524,3.146-.524a.525.525,0,0,0,.524-.524v-6.291A.524.524,0,0,0,657.984,137.727Z" transform="translate(-651.168 -137.727)" fill="#ffd36e"/>
      <path id="Path_360" data-name="Path 360" d="M657.984,159.844h-6.291a.524.524,0,0,0-.524.524v6.291a.524.524,0,0,0,.524.524h6.291a.525.525,0,0,0,.524-.524v-6.291A.524.524,0,0,0,657.984,159.844Z" transform="translate(-651.168 -152.504)" fill="#ffd36e"/>
    </g>
    <path id="Path_361" data-name="Path 361" d="M652.216,166.66v-6.291a.524.524,0,0,1,.524-.524h-1.048a.524.524,0,0,0-.524.524v6.291a.524.524,0,0,0,.524.524h1.048A.524.524,0,0,1,652.216,166.66Z" transform="translate(-27.87 -46.836)" fill="#ffc42d"/>
    <path id="Path_362" data-name="Path 362" d="M661.164,159.844h-2.1v2.621a.524.524,0,0,0,.524.524h1.048a.524.524,0,0,0,.524-.524v-2.621Z" transform="translate(-33.148 -46.836)" fill="#f4b10f"/>
    <path id="Path_363" data-name="Path 363" d="M652.216,144.543v-6.291a.524.524,0,0,1,.524-.524h-1.048a.524.524,0,0,0-.524.524v6.291a.524.524,0,0,0,.524.524h1.048A.524.524,0,0,1,652.216,144.543Z" transform="translate(-27.87 -32.058)" fill="#ffc42d"/>
    <path id="Path_364" data-name="Path 364" d="M661.164,137.727h-2.1v2.621a.524.524,0,0,0,.524.524h1.048a.524.524,0,0,0,.524-.524v-2.621Z" transform="translate(-33.148 -32.058)" fill="#f4b10f"/>
    <path id="Path_365" data-name="Path 365" d="M660.108,154.573h-2.1a.524.524,0,1,1,0-1.048h2.1a.524.524,0,1,1,0,1.048Z" transform="translate(-32.092 -42.614)" fill="#616369"/>
    <rect id="Rectangle_301" data-name="Rectangle 301" width="10.211" height="9.032" rx="1.949" transform="translate(633.007 113.008)" fill="#f6967e"/>
    <rect id="Rectangle_302" data-name="Rectangle 302" width="1.293" height="9.032" rx="0.647" transform="translate(641.924 113.008)" fill="#ce5642"/>
    <g id="Outline" transform="translate(633.977 113.794)">
      <path id="Path_366" data-name="Path 366" d="M684.837,174.68a.494.494,0,0,1-.351-.146l-.995-.995a.5.5,0,0,1,.352-.849h4.973a.995.995,0,1,0,0-1.989h-3.481a.5.5,0,1,1,0-.995h3.481a1.99,1.99,0,0,1,0,3.979h-3.773l.146.145a.5.5,0,0,1-.352.849Zm-.995-1.741a.249.249,0,0,0-.176.424l.995.995a.249.249,0,0,0,.355-.348l0,0-.358-.358a.124.124,0,0,1,.088-.212h4.073a1.741,1.741,0,0,0,0-3.481h-3.481a.249.249,0,1,0,0,.5h3.481a1.243,1.243,0,0,1,0,2.487Z" transform="translate(-683.345 -167.219)" fill="#464797"/>
      <path id="Path_367" data-name="Path 367" d="M688.815,167.186h-3.481a1.989,1.989,0,0,1,0-3.979h3.786l-.146-.148a.5.5,0,1,1,.709-.7l.979.995a.5.5,0,0,1-.354.846h-4.973a.995.995,0,0,0,0,1.99h3.482a.5.5,0,0,1,0,.995Zm-3.481-3.73a1.741,1.741,0,0,0,0,3.482h3.482a.249.249,0,0,0,0-.5h-3.482a1.243,1.243,0,0,1,0-2.487h4.973a.249.249,0,0,0,.177-.423l-.979-.995a.249.249,0,1,0-.36.343l.006.006.354.36a.124.124,0,0,1-.089.211Z" transform="translate(-683.345 -162.213)" fill="#464797"/>
    </g>
  </g>
</svg>
