<svg xmlns="http://www.w3.org/2000/svg" width="29.938" height="30.971" viewBox="0 0 29.938 30.971">
  <g id="Group_1404" data-name="Group 1404" transform="translate(-485.594 -88.906)">
    <path id="Path_323" data-name="Path 323" d="M515.306,98.8,500.853,89a.515.515,0,0,0-.58,0L485.82,98.8a.515.515,0,0,0-.226.427V119.36a.516.516,0,0,0,.516.516h28.906a.516.516,0,0,0,.516-.516V99.23A.515.515,0,0,0,515.306,98.8Z" fill="#eb643e"/>
    <path id="Path_324" data-name="Path 324" d="M487.142,119.36V99.23a.517.517,0,0,1,.226-.427l13.968-9.478L500.853,89a.515.515,0,0,0-.58,0L485.82,98.8a.516.516,0,0,0-.226.427V119.36a.516.516,0,0,0,.516.516h1.549A.516.516,0,0,1,487.142,119.36Z" fill="#dc3e2b"/>
    <path id="Path_325" data-name="Path 325" d="M520.49,126.821H501.908a.516.516,0,0,0-.516.516v17.55a.516.516,0,0,0,.516.516H520.49a.516.516,0,0,0,.516-.516v-17.55A.516.516,0,0,0,520.49,126.821Z" transform="translate(-10.636 -25.527)" fill="#616369"/>
    <path id="Path_326" data-name="Path 326" d="M501.908,126.821a.516.516,0,0,0-.516.516v17.55a.516.516,0,0,0,.516.516h1.033V126.821Z" transform="translate(-10.636 -25.527)" fill="#4d5056"/>
    <path id="Path_327" data-name="Path 327" d="M519.4,120.5H498.748a.516.516,0,0,0-.516.516v2.065a.516.516,0,0,0,.516.516H519.4a.516.516,0,0,0,.516-.516v-2.065A.516.516,0,0,0,519.4,120.5Z" transform="translate(-8.509 -21.272)" fill="#b6b7b9"/>
    <path id="Path_328" data-name="Path 328" d="M519.4,125.757H498.748a.516.516,0,0,1-.516-.516v1.033a.516.516,0,0,0,.516.516H519.4a.516.516,0,0,0,.516-.516v-1.033A.516.516,0,0,1,519.4,125.757Z" transform="translate(-8.509 -24.463)" fill="#a0a1a6"/>
    <g id="Group_1389" data-name="Group 1389" transform="translate(497.982 92.519)">
      <path id="Path_329" data-name="Path 329" d="M528.155,101h-4.13a.516.516,0,0,1,0-1.032h4.13a.516.516,0,0,1,0,1.032Z" transform="translate(-523.509 -99.965)" fill="#dc3e2b"/>
      <path id="Path_330" data-name="Path 330" d="M528.155,107.316h-4.13a.516.516,0,0,1,0-1.032h4.13a.516.516,0,0,1,0,1.032Z" transform="translate(-523.509 -104.219)" fill="#dc3e2b"/>
      <path id="Path_331" data-name="Path 331" d="M528.155,113.635h-4.13a.516.516,0,0,1,0-1.032h4.13a.516.516,0,0,1,0,1.032Z" transform="translate(-523.509 -108.474)" fill="#dc3e2b"/>
    </g>
    <g id="Group_1390" data-name="Group 1390" transform="translate(490.756 105.424)">
      <path id="Path_332" data-name="Path 332" d="M508.1,139.459h-6.194a.516.516,0,0,0-.516.516v6.194a.516.516,0,0,0,.516.516l3.1.516,3.1-.516a.516.516,0,0,0,.516-.516v-6.194A.516.516,0,0,0,508.1,139.459Z" transform="translate(-501.392 -139.459)" fill="#ffd36e"/>
      <path id="Path_333" data-name="Path 333" d="M508.1,161.576h-6.194a.516.516,0,0,0-.516.516v6.194a.516.516,0,0,0,.516.516H508.1a.516.516,0,0,0,.516-.516v-6.194A.516.516,0,0,0,508.1,161.576Z" transform="translate(-501.392 -154.349)" fill="#ffd36e"/>
    </g>
    <path id="Path_334" data-name="Path 334" d="M502.424,168.286v-6.194a.516.516,0,0,1,.516-.516h-1.033a.516.516,0,0,0-.516.516v6.194a.516.516,0,0,0,.516.516h1.033A.516.516,0,0,1,502.424,168.286Z" transform="translate(-10.636 -48.926)" fill="#ffc42d"/>
    <path id="Path_335" data-name="Path 335" d="M511.356,161.576h-2.065v2.581a.516.516,0,0,0,.516.516h1.033a.516.516,0,0,0,.516-.516v-2.581Z" transform="translate(-15.954 -48.926)" fill="#f4b10f"/>
    <path id="Path_336" data-name="Path 336" d="M510.292,178.406h-2.065a.516.516,0,1,1,0-1.032h2.065a.516.516,0,0,1,0,1.032Z" transform="translate(-14.89 -59.562)" fill="#616369"/>
    <path id="Path_337" data-name="Path 337" d="M502.424,146.169v-6.194a.516.516,0,0,1,.516-.516h-1.033a.516.516,0,0,0-.516.516v6.194a.516.516,0,0,0,.516.516h1.033A.516.516,0,0,1,502.424,146.169Z" transform="translate(-10.636 -34.035)" fill="#ffc42d"/>
    <path id="Path_338" data-name="Path 338" d="M511.356,139.459h-2.065v2.581a.516.516,0,0,0,.516.516h1.033a.516.516,0,0,0,.516-.516v-2.581Z" transform="translate(-15.954 -34.035)" fill="#f4b10f"/>
    <path id="Path_339" data-name="Path 339" d="M510.292,156.289h-2.065a.516.516,0,1,1,0-1.032h2.065a.516.516,0,0,1,0,1.032Z" transform="translate(-14.89 -44.671)" fill="#616369"/>
    <path id="Path_340" data-name="Path 340" d="M530.219,161.576h-6.194a.516.516,0,0,0-.516.516v6.194a.516.516,0,0,0,.516.516h6.194a.516.516,0,0,0,.516-.516v-6.194A.516.516,0,0,0,530.219,161.576Z" transform="translate(-25.527 -48.926)" fill="#ffd36e"/>
    <path id="Path_341" data-name="Path 341" d="M524.541,168.286v-6.194a.516.516,0,0,1,.516-.516h-1.033a.516.516,0,0,0-.516.516v6.194a.516.516,0,0,0,.516.516h1.033A.516.516,0,0,1,524.541,168.286Z" transform="translate(-25.526 -48.926)" fill="#ffc42d"/>
    <path id="Path_342" data-name="Path 342" d="M533.472,161.576h-2.065v2.581a.516.516,0,0,0,.516.516h1.033a.516.516,0,0,0,.516-.516v-2.581Z" transform="translate(-30.844 -48.926)" fill="#f4b10f"/>
    <path id="Path_343" data-name="Path 343" d="M532.409,178.406h-2.065a.516.516,0,0,1,0-1.032h2.065a.516.516,0,1,1,0,1.032Z" transform="translate(-29.781 -59.562)" fill="#616369"/>
  </g>
</svg>
