<svg xmlns="http://www.w3.org/2000/svg" width="21.261" height="34" viewBox="0 0 21.261 34">
  <g id="Group_1409" data-name="Group 1409" transform="translate(6564 10496)">
    <rect id="Rectangle_285" data-name="Rectangle 285" width="21.261" height="25.59" rx="2.489" transform="translate(-6564 -10490.249)" fill="#ffd422"/>
    <rect id="Rectangle_286" data-name="Rectangle 286" width="18.234" height="21.946" rx="2.489" transform="translate(-6562.515 -10488.718)" fill="#fff"/>
    <rect id="Rectangle_287" data-name="Rectangle 287" width="10.44" height="3.678" rx="1.839" transform="translate(-6558.575 -10491.07)" fill="#e4418b"/>
    <rect id="Rectangle_288" data-name="Rectangle 288" width="7.016" height="1.217" rx="0.608" transform="translate(-6561.298 -10485.694)" fill="#c8c9ca"/>
    <rect id="Rectangle_289" data-name="Rectangle 289" width="7.016" height="1.217" rx="0.608" transform="translate(-6552.188 -10485.694)" fill="#c8c9ca"/>
    <rect id="Rectangle_290" data-name="Rectangle 290" width="7.016" height="1.217" rx="0.608" transform="translate(-6561.298 -10483.177)" fill="#c8c9ca"/>
    <rect id="Rectangle_291" data-name="Rectangle 291" width="7.016" height="1.217" rx="0.608" transform="translate(-6552.188 -10483.177)" fill="#c8c9ca"/>
    <rect id="Rectangle_292" data-name="Rectangle 292" width="7.016" height="1.217" rx="0.608" transform="translate(-6561.298 -10480.658)" fill="#c8c9ca"/>
    <rect id="Rectangle_293" data-name="Rectangle 293" width="7.016" height="1.217" rx="0.608" transform="translate(-6552.188 -10480.658)" fill="#c8c9ca"/>
    <rect id="Rectangle_294" data-name="Rectangle 294" width="7.016" height="1.217" rx="0.608" transform="translate(-6561.277 -10478.141)" fill="#c8c9ca"/>
    <rect id="Rectangle_295" data-name="Rectangle 295" width="7.016" height="1.217" rx="0.608" transform="translate(-6552.167 -10478.141)" fill="#c8c9ca"/>
    <g id="Group_1387" data-name="Group 1387" transform="translate(-6557.518 -10473.932)">
      <path id="Path_319" data-name="Path 319" d="M401.6,172.942c-.04.112-1.99,6.033-1.99,6.033l1.89-1.065.72,2.18,2.03-6.4" transform="translate(-399.607 -168.158)" fill="#009fdf"/>
      <path id="Path_320" data-name="Path 320" d="M411.3,173.2c.057.106,3.177,5.63,3.177,5.63l.481-2.126,2.123.976-3.428-5.917" transform="translate(-407.416 -167.371)" fill="#009fdf"/>
      <path id="Path_321" data-name="Path 321" d="M403.935,158.55l1.338,2.71,2.991.435L406.1,163.8l.511,2.979-2.675-1.406-2.675,1.406.511-2.979-2.164-2.11,2.991-.435Z" transform="translate(-399.606 -158.55)" fill="#005b90"/>
      <path id="Path_322" data-name="Path 322" d="M404.746,158.55l1.213,2.457,2.712.394-1.962,1.913.463,2.7-2.426-1.275-2.426,1.275.463-2.7-1.962-1.913,2.712-.394Z" transform="translate(-400.417 -158.55)" fill="#009fdf"/>
    </g>
    <circle id="Ellipse_64" data-name="Ellipse 64" cx="2.313" cy="2.313" r="2.313" transform="translate(-6555.682 -10495)" fill="none" stroke="#e4418b" stroke-miterlimit="10" stroke-width="2"/>
  </g>
</svg>
