<svg xmlns="http://www.w3.org/2000/svg" width="10.678" height="10.681" viewBox="0 0 10.678 10.681">
  <g id="Icon_ionic-ios-timer" data-name="Icon ionic-ios-timer" transform="translate(-3.938 -3.938)">
    <g id="Group_1410" data-name="Group 1410">
      <path id="Path_305" data-name="Path 305" d="M9.278,14.619A5.341,5.341,0,0,1,5.572,5.433a.429.429,0,1,1,.6.617A4.482,4.482,0,1,0,9.705,4.816V6.488a.43.43,0,0,1-.86,0V4.367a.43.43,0,0,1,.43-.43,5.341,5.341,0,0,1,0,10.681Z" fill="#f0955c"/>
      <path id="Path_306" data-name="Path 306" d="M11.676,11.3l2.657,1.909a.8.8,0,0,1-.935,1.308.776.776,0,0,1-.187-.187L11.3,11.676a.268.268,0,0,1,.374-.374Z" transform="translate(-4.537 -4.536)" fill=""/>
    </g>
  </g>
</svg>
