<svg id="Group_440" data-name="Group 440" xmlns="http://www.w3.org/2000/svg" width="12.873" height="12.245" viewBox="0 0 12.873 12.245">
  <path id="Path_16" data-name="Path 16" d="M12.777,4.545,6.529,1.024a.186.186,0,0,0-.185,0L2.651,3.105a.189.189,0,1,0,.185.329l3.6-2.029,5.991,3.376-.232.413L6.529,2a.188.188,0,0,0-.185,0L.678,5.194.446,4.781l1.624-.915a.189.189,0,0,0-.185-.328L.1,4.545A.189.189,0,0,0,.025,4.8l.417.741A.189.189,0,0,0,.7,5.615l.395-.223v5.569H.78a.189.189,0,0,0-.189.189V12a.189.189,0,0,0,.189.189H2.242a.189.189,0,1,0,0-.377H.969v-.473H2.258a.189.189,0,1,0,0-.377H1.471V5.18l4.966-2.8L11.4,5.18V6.8a.189.189,0,0,0,.377,0V5.393l.395.223a.19.19,0,0,0,.093.024.2.2,0,0,0,.051-.007.189.189,0,0,0,.114-.089l.417-.741a.189.189,0,0,0-.072-.257Z" transform="translate(0 -1)"/>
  <path id="Path_17" data-name="Path 17" d="M20.376,16.122h-.314v-3.3a.189.189,0,0,0-.377,0v3.3h-.818a.189.189,0,1,0,0,.377h1.321v.473H18.867a.189.189,0,1,0,0,.377h1.509a.189.189,0,0,0,.189-.189v-.85A.189.189,0,0,0,20.376,16.122Z" transform="translate(-8.283 -6.16)"/>
  <path id="Path_18" data-name="Path 18" d="M11.477,14.855a.19.19,0,0,0-.164-.095h-.534V14.09a.188.188,0,0,0-.189-.188h-3.7a.188.188,0,1,0,0,.377H10.4v2.953a.879.879,0,0,0-.668.668H7.666a.878.878,0,0,0-1.714,0h-.49V14.279h.551a.188.188,0,1,0,0-.377h-.74a.188.188,0,0,0-.188.188v4a.188.188,0,0,0,.188.189h.678a.878.878,0,0,0,1.714,0H9.733a.878.878,0,0,0,1.714,0h.662a.188.188,0,0,0,.188-.189V16.341a.189.189,0,0,0-.024-.094ZM6.809,18.588a.5.5,0,1,1,.5-.5A.5.5,0,0,1,6.809,18.588Zm3.971-3.451H11.2l.58,1.015H10.779Zm-.189,3.451a.5.5,0,1,1,.5-.5A.5.5,0,0,1,10.591,18.588Zm1.331-.688h-.474a.879.879,0,0,0-.668-.668v-.7h1.142Z" transform="translate(-2.255 -6.721)"/>
  <path id="Path_19" data-name="Path 19" d="M8.03,17.254a.188.188,0,0,0,.189.189H9.8l-.215.215a.189.189,0,0,0,.267.267l.538-.537a.191.191,0,0,0,.055-.134.188.188,0,0,0-.055-.133l-.538-.538a.189.189,0,0,0-.267.267l.215.215H8.219a.188.188,0,0,0-.189.189Z" transform="translate(-3.561 -7.886)"/>
  <path id="Path_20" data-name="Path 20" d="M5.452,10.59V9.176a.189.189,0,0,0-.189-.189H3.85a.189.189,0,0,0-.189.189V10.59a.189.189,0,0,0,.189.189H5.263A.189.189,0,0,0,5.452,10.59ZM5.075,10.4H4.038V9.364h.329V9.54a.189.189,0,1,0,.377,0V9.364h.329V10.4Z" transform="translate(-1.624 -4.542)"/>
  <path id="Path_21" data-name="Path 21" d="M7.858,10.59a.188.188,0,0,0,.189.189H9.46a.189.189,0,0,0,.189-.189V9.176a.189.189,0,0,0-.189-.189H8.047a.188.188,0,0,0-.189.189Zm.377-1.226h.33V9.54a.189.189,0,1,0,.377,0V9.364h.329V10.4H8.235Z" transform="translate(-3.485 -4.542)"/>
  <path id="Path_22" data-name="Path 22" d="M12.054,10.59a.189.189,0,0,0,.189.189h1.414a.188.188,0,0,0,.188-.189V9.176a.188.188,0,0,0-.188-.189H12.243a.189.189,0,0,0-.189.189Zm.377-1.226h.33V9.54a.188.188,0,1,0,.377,0V9.364h.33V10.4H12.431V9.364Z" transform="translate(-5.345 -4.542)"/>
  <path id="Path_23" data-name="Path 23" d="M16.44,10.779h1.414a.189.189,0,0,0,.189-.189V9.176a.189.189,0,0,0-.189-.189H16.44a.189.189,0,0,0-.189.189V10.59A.189.189,0,0,0,16.44,10.779Zm.189-1.414h.329V9.54a.189.189,0,1,0,.377,0V9.364h.329V10.4H16.628V9.364Z" transform="translate(-7.206 -4.542)"/>
</svg>
